<svg xmlns="http://www.w3.org/2000/svg" xmlns:xlink="http://www.w3.org/1999/xlink" viewBox="0 0 320.34 244.41" version="1"><defs><linearGradient id="b"><stop offset="0" stop-color="#d3bb96" stop-opacity=".81"/><stop offset=".5" stop-color="#c6a776" stop-opacity=".887"/><stop offset=".75" stop-color="#a96b0b" stop-opacity=".824"/><stop offset=".875" stop-color="#ab8447" stop-opacity=".294"/><stop offset="1" stop-color="#bf9c66" stop-opacity=".827"/></linearGradient><linearGradient id="c"><stop offset="0" stop-color="#d3bb96" stop-opacity=".81"/><stop offset=".5" stop-color="#e4d5be"/><stop offset=".75" stop-color="#d3bb96"/><stop offset=".875" stop-color="#d3bb96" stop-opacity=".294"/><stop offset="1" stop-color="#d3bb96" stop-opacity=".828"/></linearGradient><linearGradient id="a"><stop offset="0" stop-color="#d2ba96"/><stop offset="1" stop-color="#d2ba96" stop-opacity="0"/></linearGradient><filter id="s"><feGaussianBlur stdDeviation=".419"/></filter><linearGradient id="m" y2="145.83" gradientUnits="userSpaceOnUse" x2="458.21" y1="145.83" x1="232.64"><stop offset="0" stop-color="#f7f2e3"/><stop offset="1" stop-color="#faf7ee"/></linearGradient><radialGradient id="n" gradientUnits="userSpaceOnUse" cy="145.83" cx="345.42" gradientTransform="matrix(1 0 0 .9373 0 9.143)" r="112.78"><stop offset="0" stop-color="#473422"/><stop offset="1" stop-color="#251b12"/></radialGradient><radialGradient id="p" xlink:href="#a" gradientUnits="userSpaceOnUse" cy="111.51" cx="455.81" gradientTransform="matrix(1.381 -.80821 1.6769 2.8652 160.78 157.91)" r="7.25"/><radialGradient id="q" xlink:href="#a" gradientUnits="userSpaceOnUse" cy="66.435" cx="520.57" gradientTransform="matrix(1.1675 -.39637 .98284 2.8949 370.23 76.645)" r="12.743"/><radialGradient id="e" gradientUnits="userSpaceOnUse" cy="365.92" cx="458.45" gradientTransform="matrix(1 0 0 .92684 0 26.376)" r="106.7"><stop offset="0" stop-color="#e0cb99"/><stop offset=".779" stop-color="#ac7c36" stop-opacity=".9"/><stop offset="1" stop-color="#dcc698" stop-opacity=".846"/></radialGradient><radialGradient id="f" xlink:href="#b" gradientUnits="userSpaceOnUse" cy="208.4" cx="202.46" gradientTransform="matrix(-.1827 -1.0451 .7598 -.13283 330.15 629.76)" r="113.39"/><radialGradient id="g" xlink:href="#c" gradientUnits="userSpaceOnUse" cy="392.87" cx="515.46" gradientTransform="matrix(.67486 -.73795 1.3201 1.2072 -351.01 296.63)" r="107.19"/><radialGradient id="j" xlink:href="#b" gradientUnits="userSpaceOnUse" cy="261.02" cx="382.52" gradientTransform="matrix(1.5147 -.58093 .61568 1.6053 -382.23 98.875)" r="10.969"/><radialGradient id="k" xlink:href="#b" gradientUnits="userSpaceOnUse" cy="282.4" cx="372.03" gradientTransform="matrix(.37076 -1.0968 2.4104 .55463 -441.33 526.39)" r="7.946"/><radialGradient id="l" xlink:href="#c" gradientUnits="userSpaceOnUse" cy="216.88" cx="289.28" gradientTransform="matrix(1.0211 -.58206 .38197 .6701 63.678 416.53)" r="113.39"/><filter id="d"><feGaussianBlur stdDeviation="3.736"/></filter><linearGradient id="o" y2="88.306" gradientUnits="userSpaceOnUse" x2="505.69" gradientTransform="translate(501.84 -5.657)" y1="69.306" x1="482.16"><stop offset="0" stop-color="#fffcf3"/><stop offset="1" stop-color="#f6e4d6"/></linearGradient><linearGradient id="r" y2="94.044" gradientUnits="userSpaceOnUse" x2="489.1" gradientTransform="translate(521.84 -5.657)" y1="91.794" x1="487.66"><stop offset="0" stop-color="#af875b"/><stop offset="1" stop-color="#c4a787" stop-opacity=".995"/></linearGradient><radialGradient id="h" xlink:href="#b" gradientUnits="userSpaceOnUse" cy="292.63" cx="368.97" gradientTransform="matrix(-.78975 1.5405 -2.6455 -1.3563 1418.8 116.43)" r="8.422"/><radialGradient id="i" xlink:href="#b" gradientUnits="userSpaceOnUse" cy="271.51" cx="372.16" gradientTransform="matrix(1.3777 -.12669 .07086 .77054 -159.81 109.45)" r="7.689"/></defs><path d="M987.44 42.281c-62.26 0-112.78 47.366-112.78 105.72 0 58.35 50.52 105.72 112.78 105.72s112.76-47.37 112.76-105.72c0-11.67-2-22.88-5.7-33.38l4-2.31c1.8-.45 6.7-.17 8.1-1.28.3 0 .5-.03.7-.09.5-.13 1.1-.35 1.9-.69 1.6-.68 3.7-1.78 6.3-3.19 5.1-2.82 12-6.95 19.5-11.748 7.5-4.795 14.2-9.357 18.9-12.843 2.4-1.743 4.3-3.219 5.5-4.344.7-.562 1.1-1.029 1.4-1.437.2-.205.3-.399.4-.626.2-.226.3-.588 0-.968 0-.061-.1-.111-.1-.156.1.014.1.016.1-.032-.3-1.527-.5-2.492-.7-3.281-1.5-5.793-8.2-18.58-12.9-21.563-4.8-3.05-9-1.819-12.4-.343-15.7 7.002-32.9 17.806-46.3 27.937-2.1 1.595-4.2 4.131-4.7 6.719l-3.8 3.187c1.1 1.605 2 3.177 2.9 4.782-19.9-30.035-55.4-50.063-95.86-50.063z" fill-opacity=".162" filter="url(#d)" fill="#111514" transform="translate(-841.03 -9.309)"/><g opacity=".8"><path d="M417.41 261.62c-7.91.01-15.13.4-19.57 1.57-2.61.68-10.48-1.78-12.46.09-2.87 2.7 22.09 6.63 30.37 2.78 6.18-2.86 28.15-1.32 22.25-.4-28.32 4.39-44.82 19.43-52.62 27.28-2.72 2.73-2.09 7.41-4.44 10.44-9.99 12.83-14.55 25.16-17.1 41.4-.48 3.08-3.59 24.95-3.59 28.19 0 23.27 7.78 27.58 22.94 43.84 1.73 1.86-2.2 8.38 2.43 10.85 14.74 7.86 15.01 17.07 29 19.81 6.59 1.29 7.28-1.83 19.13-1.13 3.2.22 25.19-1.18 0-6.28-39.72-9.84-69.03-43.75-69.03-84.06 0-48 41.56-86.97 92.78-86.97S550.28 308 550.28 356c0 41.05-30.27 76.03-71.22 84.6-9.56 1.99 4.54 8.62-.53 9.02-6.68.54-20.63 3.74-17.28 8.44 3.62 3.51 31.37.02 47.53-8.15 25.14-12.72 45.63-30.69 47-43.22.52-4.73-15.09 2.42-14.09-2.5.42-2.08 2.25-3.59 3.28-5.44 1.27-2.28 4.99-8.55 8.53-8.25 4.48.38 8.73.39 11.81-3.16 7.52-8.64 8.35-23.85 8.35-32.84 0-7.78-2.19-23.68-7.28-31.41-3.46-5.23-9.61-4.01-12.13-4.34-9.91-1.32-14.24-14.06-19.66-20.41-18.08-21.2-45.9-34.47-77.09-34.81-1.96-.02-22.7-1.92-40.09-1.91z" fill="url(#e)" transform="rotate(80.254 422.996 23.417)"/><path d="M457.25 269.03c-51.47 0-93.03 38.68-93.03 86.97 0 46.01 36.05 83.51 83.97 86.96 2.38.17 21.6-.49 25.1-.93l2.25-.07c-3.22.25-23.47 1.17-27.05.76-46.58-5.32-83.27-41.9-83.27-86.72 0-47.71 42.19-86.84 93.16-86.84l-1.13-.13z" fill="url(#f)" transform="rotate(80.254 422.996 23.417)"/><path d="M478.5 449.75c-8.44.18-15.73 3.33-17.21 4.35-.73.51-1.44 1.08-1.48 1.9-.03.82.32 1.65 1.1 2.41.58.56 1.5.89 2.68 1.12 1.19.23 2.65.36 4.35.38 3.4.04 7.74-.31 12.47-1.03 9.45-1.46 20.46-4.38 28.62-8.5 12.61-6.38 24.02-14.09 32.5-21.79 8.48-7.69 14.04-15.33 14.75-21.84.08-.72-.18-1.39-.69-1.75-.5-.36-1.17-.46-1.9-.5-1.47-.08-3.36.24-5.22.53s-3.7.56-4.91.47c-.6-.04-1.02-.18-1.22-.34-.19-.17-.25-.35-.15-.85.37-1.84 2.12-3.34 3.22-5.31.63-1.13 1.88-3.26 3.37-5.03 1.49-1.78 3.23-3.09 4.69-2.97 2.25.19 4.47.28 6.56-.12 2.09-.41 4.04-1.36 5.66-3.22 7.69-8.85 8.47-24.14 8.47-33.16 0-7.87-2.14-23.75-7.38-31.69-3.62-5.49-10.21-4.26-12.47-4.56-4.75-.63-8.19-4.03-11.15-8.13-2.97-4.09-5.42-8.87-8.19-12.12-18.18-21.32-46.14-34.63-77.47-34.97-.61-.01-3.88-.27-8.5-.59-4.62-.33-10.63-.7-17.03-.97-4.8-.21-9.78-.37-14.53-.38-1.59 0-3.15.03-4.66.07-6.05.14-11.43.61-15.06 1.56-.52.14-1.48.1-2.6 0-1.11-.1-2.4-.29-3.68-.44-1.29-.15-2.58-.26-3.69-.22-1.11.05-2.06.23-2.72.85-.25.24-.43.61-.37.97.05.35.26.62.53.84.52.44 1.34.8 2.4 1.16 2.13.7 5.24 1.32 8.72 1.74 6.97.85 15.28.91 19.66-1.12 1.42-.66 3.94-1.1 6.75-1.34s5.91-.29 8.66-.22c2.41.06 4.28.22 5.62.4-27.88 4.61-44.26 19.47-52 27.25-1.47 1.48-1.99 3.46-2.47 5.35s-1.61 3.93-1.81 5.68l.59.04c1.19-1.69 1.72-3.63 2.19-5.5.47-1.88.97-3.6 2.22-4.85 7.79-7.82 24.16-22.78 52.34-27.15.39-.06.68-.14.91-.22.11-.05.19-.08.31-.19s.24-.4.16-.63a.671.671 0 0 0-.32-.37c-.1-.06-.19-.09-.31-.13-.23-.07-.5-.12-.84-.18-1.38-.24-3.79-.43-6.56-.5-2.78-.08-5.92-.03-8.79.22-2.86.24-5.4.66-7.06 1.43-3.91 1.82-12.25 1.87-19.12 1.03-3.44-.41-6.52-1.05-8.53-1.71-1.01-.34-1.74-.7-2.07-.97-.16-.14-.22-.22-.22-.22.01 0 0 .03.1-.06.33-.32 1.08-.56 2.09-.6s2.24.07 3.5.22c1.27.15 2.56.33 3.72.44s2.16.17 2.94-.03c3.47-.91 8.76-1.36 14.78-1.5 6.02-.15 12.77 0 19.16.28 6.38.27 12.41.64 17.03.97 4.61.32 7.74.58 8.56.59 31.05.34 58.73 13.53 76.72 34.63 2.64 3.09 5.1 7.87 8.12 12.06 3.03 4.18 6.69 8.85 11.85 9.53 2.78.37 7.74-1.13 10.53 2.84 5.16 7.38 7.19 23.48 7.19 31.16 0 8.96-.88 24.06-8.22 32.5-1.47 1.69-1.92 2.78-3.85 3.16-1.92.37-4.08.28-6.31.09-2.08-.17-3.96 1.48-5.53 3.34-1.57 1.87-2.83 4.04-3.47 5.19-.96 1.73-2.88 3.25-3.34 5.56-.15.73.03 1.42.5 1.82.46.4 1.1.54 1.81.59 1.42.1 2.2.61 4.06.31 1.86-.29 3.72-.56 5-.5.64.04 1.13.17 1.38.35.24.17.33.31.28.78-.66 6.02-6.45 12.57-14.84 20.18-8.4 7.62-18.29 15.51-30.82 21.85-8 4.05-18.94 6.96-28.31 8.41-4.68.72-8.99 1.07-12.31 1.03-1.66-.02-3.07-.13-4.16-.35-1.09-.21-1.86-.56-2.19-.87-.63-.62-.96-1.15-.78-1.63.2-.51.63-.82 1.23-1.3 1.31-1.06 8.69-4.06 16.46-5.01zm-95.97-34.37v1.46c.11.12.21.2.31.32.27.28.37.88.32 1.75-.05.86-.25 1.94-.35 3.06-.09 1.11-.09 2.28.25 3.37.34 1.1 1.05 2.11 2.32 2.78 7.29 3.9 11 8.08 14.68 11.72 3.68 3.65 7.37 6.74 14.47 8.13 3.84.75 5.83.03 8.88-.56 3.01-.59 6.85-1.08 14.52-1.1l1.5-.21c-8.5-1.04-13.15-.26-16.21.34-3.12.61-4.83 1.28-8.5.56-6.89-1.35-10.32-4.26-13.97-7.88-3.65-3.61-7.47-7.93-14.91-11.9-1.05-.56-1.56-1.3-1.84-2.19s-.28-1.91-.19-2.97c.1-1.06.29-2.13.35-3.09.05-.96 0-1.86-.6-2.5-.37-.4-.67-.71-1.03-1.09z" fill="url(#g)" transform="rotate(80.254 422.996 23.417)"/><path d="M370.53 292.11c0 3.61-1.78 5.74-5.91 6.55-3.85.75-10.94-3.54-10.94-7.15 0-3.62 3.19-6.55 7.12-6.55s9.73 3.54 9.73 7.15z" fill="url(#h)" transform="rotate(80.254 422.996 23.417)"/><path d="M377.89 267.52c2.96 1.25 2.18 4.52.17 5.89-1.07.73-4.47-1.46-5.78-.41-1.63 1.31-3.83 3.23-5.35 2.72-2.49-.83-3.51-4.38-1.06-6.03 1.14-.78 3.74-.59 5.94-.93 1.58-.25 3.49-2.33 6.08-1.24z" fill="url(#i)" transform="rotate(80.254 422.996 23.417)"/><path d="M360.8 284.56c-4.12 0-7.52 3.09-7.52 6.94 0 2.07 1.89 4.09 4.2 5.56 2.32 1.47 5.11 2.4 7.22 1.99 2.12-.42 3.7-1.17 4.73-2.34 1.04-1.17 1.51-2.73 1.51-4.61 0-2.02-1.57-3.88-3.57-5.25-2-1.38-4.48-2.29-6.57-2.29zm.57 1.09c1.85 0 3.67.58 5.55 1.88 1.88 1.29 2.65 2.77 2.65 4.36 0 1.74-.43 3.08-1.31 4.07-.89 1-2.27 1.7-4.28 2.09-1.74.34-3.88-.28-6.07-1.67s-3.25-3.05-3.25-4.6c0-3.37 2.99-6.13 6.71-6.13z" fill="url(#j)" transform="rotate(80.254 422.996 23.417)"/><path d="M365.55 269.37c-1.38.93-1.79 2.4-1.51 3.71.29 1.31 1.24 2.54 2.69 3.03.52.17 1.08.13 1.6-.02s1.04-.43 1.53-.73c1-.61 1.97-1.41 2.78-2.06.19-.15.45-.2.89-.16s1 .17 1.57.33 1.15.35 1.7.45c.54.09 1.13.13 1.6-.19 1.13-.77 1.85-2.02 1.93-3.29.09-1.27-.56-2.6-2.21-3.3-1.45-.61-2.81-.33-3.87.11-1.06.45-1.94 1.01-2.51 1.1-1.05.17-2.25.22-3.34.31-1.09.1-2.12.21-2.85.71zm1.12.48c.41-.28.78-.3 1.82-.39 1.05-.09 2.26-.11 3.41-.29 1.01-.16 1.88-.78 2.81-1.17.94-.39 1.52-.38 2.66.1 1.3.55 1.74 1.48 1.67 2.5-.06 1.02-.42 1.56-1.29 2.16-.08.05-.32.1-.76.02-.43-.07-.94-.3-1.52-.46-.58-.17-1.2-.33-1.8-.39-.59-.05-1.21.02-1.68.4-.82.66-1.84 1.83-2.74 2.38-.44.28-.71.33-1.08.44-.37.1-.31.13-.55.05-1.04-.35-1.86-1.33-2.09-2.42-.24-1.08.08-2.21 1.14-2.93z" fill="url(#k)" transform="rotate(80.254 422.996 23.417)"/><path d="M487.06 273.62c36.84 11.37 62.72 44.1 62.72 82.38s-26.49 71.37-63.33 82.73c-1.13.6.17.25.21.36 37.22-11.47 65.18-44.7 65.18-83.44 0-38.75-28.18-70.92-65.4-82.4-.96-.18.66.26.62.37z" fill="url(#l)" transform="rotate(80.254 422.996 23.417)"/></g><path d="M458.21 145.83a112.78 105.71 0 1 1-225.57 0 112.78 105.71 0 1 1 225.57 0z" transform="translate(-201.01 -12.137)" fill="url(#m)"/><path d="M252.258 134.4a107.081 100.367 0 1 1-214.163 0 107.081 100.367 0 1 1 214.163 0z" fill="#c4ad84"/><path d="M249.939 135.814a100.293 94.003 0 1 1-200.586 0 100.293 94.003 0 1 1 200.586 0z" fill="#825a37"/><path d="M458.21 145.83a112.78 105.71 0 1 1-225.57 0 112.78 105.71 0 1 1 225.57 0z" transform="matrix(.88005 0 0 .88001 -153.96 7.837)" fill="url(#n)"/><path d="M960.25 79.72l3.71-3.182c.54-2.587 2.66-5.122 4.78-6.717 13.42-10.131 30.61-20.928 46.36-27.931 3.3-1.476 7.5-2.696 12.3.354 4.7 2.982 11.5 15.774 12.9 21.567.2.788.4 1.743.7 3.271 0 .191-.7-.251-.9-.233-1.1.226-2.9.858-4.4 1.668l-40.01 24.904c-6.15 4.327-8.2 7.229-9.21 9.749-1.37 1.15-6.31.84-8.2 1.3l-4.24 2.47c-3.89-9.071-8.04-18.145-13.79-27.22z" fill="url(#o)" transform="translate(-722.85 -6.48)"/><path d="M965.09 75.343l24.25 22.75c.1 1.591-2.08 3.677-2.98 5.207-.28.47-4.24.92-5 .92-3.86-.27-5.45 2.12-7.39 2.59l-7.59-16.776-1.29-14.691z" fill="url(#p)" transform="translate(-722.85 -6.48)"/><path d="M1015.1 41.89c3.3-1.476 7.5-2.696 12.3.354 4.7 2.982 11.5 15.774 12.9 21.567.2.858.5 2.204.8 3.515 0 .119-.8-.626-.9-.499-1.5.536-5.1 1.269-10.1 5.08l-15-30.017z" fill="url(#q)" transform="translate(-722.85 -6.48)"/><path d="M1011.8 82.659c-7.3 4.624-13.69 8.996-18.24 12.357-2.28 1.681-4.07 3.119-5.29 4.204-.61.542-1.08 1-1.4 1.39-.16.2-.29.36-.38.57-.1.22-.21.58.03.95.23.37.6.42.84.42.24.01.45-.02.7-.08.49-.13 1.1-.36 1.85-.69 1.5-.65 3.54-1.7 6.02-3.057 4.97-2.721 11.67-6.693 18.87-11.317s13.6-9.021 18.2-12.382c2.3-1.681 4.1-3.11 5.3-4.195.6-.542 1.1-.983 1.4-1.378.2-.197.3-.392.4-.611.1-.218.2-.578 0-.945-.3-.366-.7-.421-.9-.425s-.4.065-.7.128c-.5.127-1.1.341-1.8.668-1.5.652-3.6 1.691-6.1 3.052-4.9 2.721-11.6 6.718-18.8 11.341z" fill="url(#r)" transform="translate(-722.85 -6.48)"/><path d="M288.85 76.092c-7.5 4.796-14.16 9.33-18.88 12.816-2.36 1.743-4.21 3.235-5.48 4.36-.63.562-1.11 1.042-1.45 1.442-.16.21-.3.37-.4.59-.1.23-.21.6.03.98.25.39.63.44.88.45.25 0 .47-.03.72-.09.51-.14 1.15-.37 1.92-.71 1.55-.68 3.67-1.77 6.24-3.178 5.12-2.822 12.12-6.941 19.62-11.737s14.1-9.356 18.8-12.842c2.4-1.743 4.3-3.226 5.5-4.351.7-.562 1.1-1.02 1.5-1.429.1-.204.3-.407.4-.633.1-.227.2-.6-.1-.981-.2-.38-.6-.437-.8-.441-.3-.004-.5.068-.8.133-.5.131-1.1.354-1.9.692-1.5.677-3.7 1.755-6.2 3.166-5.2 2.822-12.1 6.967-19.6 11.763zm.8 1.264c7.5-4.781 14.4-8.916 19.5-11.713a87.82 87.82 0 0 1 6.1-3.108c.2-.091.3-.116.5-.19-.1.137-.2.221-.4.375-1.2 1.068-3 2.512-5.4 4.239-4.6 3.456-11.3 8.011-18.8 12.793-7.4 4.781-14.35 8.888-19.45 11.686-2.55 1.399-4.64 2.492-6.12 3.132-.21.09-.3.09-.48.17.14-.14.2-.2.37-.35 1.2-1.071 3.05-2.541 5.39-4.269 4.68-3.455 11.29-7.984 18.79-12.765z" fill="#844d1e"/><path d="M868.01 39.514c-59.62 0-108.06 45.401-108.06 101.38 0 55.98 48.44 101.35 108.06 101.35 59.61 0 108.08-45.37 108.08-101.35 0-55.975-48.47-101.38-108.08-101.38zm0 2.018c58.6 0 106.09 44.538 106.09 99.358 0 54.83-47.49 99.37-106.09 99.37s-106.07-44.54-106.07-99.37c0-54.82 47.47-99.358 106.07-99.358z" filter="url(#s)" fill="#e3d19c" transform="translate(-722.85 -6.48)"/><path d="M243.38 112.9c1.64 6.7 2.51 13.67 2.51 20.83 0 51.19-44.32 92.73-98.94 92.73 1.74.09 3.48.15 5.24.15 52.4 0 94.92-39.86 94.92-88.98 0-8.58-1.31-16.87-3.73-24.73z" fill-opacity=".757" fill="#fff"/></svg>