<svg xmlns="http://www.w3.org/2000/svg" xmlns:xlink="http://www.w3.org/1999/xlink" viewBox="0 0 363.86 30.67" version="1"><defs><linearGradient id="a"><stop offset="0" stop-color="#fff" stop-opacity="0"/><stop offset=".097" stop-color="#fff" stop-opacity="0"/><stop offset=".195" stop-color="#fff" stop-opacity=".308"/><stop offset=".292" stop-color="#fff" stop-opacity="0"/><stop offset=".396" stop-color="#fff" stop-opacity=".222"/><stop offset=".483" stop-color="#fff" stop-opacity="0"/><stop offset=".746" stop-color="#fff" stop-opacity="0"/><stop offset=".817" stop-color="#fff" stop-opacity=".14"/><stop offset=".909" stop-color="#fff" stop-opacity="0"/><stop offset="1" stop-color="#fff" stop-opacity="0"/></linearGradient><filter id="k"><feGaussianBlur stdDeviation=".77"/></filter><filter id="l" y="-1.015" width="1.018" x="-.009" height="3.029"><feGaussianBlur stdDeviation="1.129"/></filter><filter id="i"><feGaussianBlur stdDeviation=".03"/></filter><filter id="d" y="-1.929" width="1.012" x="-.006" height="4.858"><feGaussianBlur stdDeviation=".755"/></filter><filter id="c" y="-1.929" width="1.012" x="-.006" height="4.858"><feGaussianBlur stdDeviation=".755"/></filter><filter id="g" y="-1.44" width="1.006" x="-.003" height="3.88"><feGaussianBlur stdDeviation=".424"/></filter><filter id="f" y="-.335" width="1.022" x="-.011" height="1.671"><feGaussianBlur stdDeviation=".28"/></filter><filter id="b"><feGaussianBlur stdDeviation=".228"/></filter><filter id="h" y="-.284" width="1.004" x="-.002" height="1.567"><feGaussianBlur stdDeviation=".305"/></filter><filter id="n"><feGaussianBlur stdDeviation=".389"/></filter><filter id="p" y="-.096" width="1.248" x="-.124" height="1.191"><feGaussianBlur stdDeviation=".479"/></filter><filter id="s"><feGaussianBlur stdDeviation=".29"/></filter><filter id="t"><feGaussianBlur stdDeviation=".29"/></filter><filter id="e" y="-.489" width="1.01" x="-.005" height="1.978"><feGaussianBlur stdDeviation=".815"/></filter><filter id="r" y="-.022" width="2.254" x="-.627" height="1.044"><feGaussianBlur stdDeviation=".162"/></filter><filter id="z" y="-.032" width="1.939" x="-.469" height="1.064"><feGaussianBlur stdDeviation=".494"/></filter><filter id="A" y="-.249" width="1.053" x="-.027" height="1.498"><feGaussianBlur stdDeviation=".409"/></filter><filter id="B" y="-.176" width="1.056" x="-.028" height="1.352"><feGaussianBlur stdDeviation=".377"/></filter><filter id="C" y="-.215" width="1.07" x="-.035" height="1.431"><feGaussianBlur stdDeviation=".335"/></filter><linearGradient id="j" y2="327.26" gradientUnits="userSpaceOnUse" x2="701.42" gradientTransform="matrix(1 0 0 .91557 -.53 27.721)" y1="327.26" x1="703.04"><stop offset="0" stop-color="#393938"/><stop offset="1" stop-color="#c6c6c6"/></linearGradient><linearGradient id="m" y2="429.31" gradientUnits="userSpaceOnUse" x2="359.12" gradientTransform="translate(-20.062 -100)" y1="423.56" x1="356.98"><stop offset="0" stop-color="#8d7955"/><stop offset="1" stop-color="#97825c"/></linearGradient><linearGradient id="o" y2="433.28" xlink:href="#a" gradientUnits="userSpaceOnUse" x2="337.67" gradientTransform="matrix(1 0 0 .94444 -20 -76.636)" y1="420.55" x1="337.67"/><linearGradient id="q" y2="432.01" xlink:href="#a" gradientUnits="userSpaceOnUse" x2="358.57" gradientTransform="translate(-20.062 -100)" y1="420.99" x1="358.57"/><linearGradient id="u" y2="449" gradientUnits="userSpaceOnUse" x2="304.38" gradientTransform="translate(0 -120)" y1="443.04" x1="305.02"><stop offset="0" stop-color="#e4cca8"/><stop offset="1" stop-color="#e4cca8" stop-opacity="0"/></linearGradient><linearGradient id="v" y2="324.43" gradientUnits="userSpaceOnUse" x2="288.25" y1="331.42" x1="288.25"><stop offset="0" stop-color="#c4c09d"/><stop offset=".16" stop-color="#dad5b8"/><stop offset=".492" stop-color="#cdc6a0"/><stop offset=".71" stop-color="#e7e3cf"/><stop offset=".855" stop-color="#ddd6bb"/><stop offset="1" stop-color="#dcd9bd"/></linearGradient><linearGradient id="w" y2="323.54" gradientUnits="userSpaceOnUse" x2="294.08" y1="332.39" x1="294.08"><stop offset="0" stop-color="#c9bb98"/><stop offset=".16" stop-color="#dfd2b1"/><stop offset=".492" stop-color="#dcc691"/><stop offset=".71" stop-color="#f0e3c4"/><stop offset=".855" stop-color="#edd9aa"/><stop offset="1" stop-color="#f0dba9"/></linearGradient><radialGradient id="x" gradientUnits="userSpaceOnUse" cy="327.97" cx="283.92" gradientTransform="matrix(.72829 0 0 .60375 77.146 129.96)" r="6.18"><stop offset="0"/><stop offset="1" stop-color="#dcd6bb" stop-opacity="0"/></radialGradient><radialGradient id="y" gradientUnits="userSpaceOnUse" cy="389.82" cx="154.15" gradientTransform="matrix(1 0 0 .132 0 328.56)" r="91.244"><stop offset="0" stop-color="#4c5653"/><stop offset=".605" stop-color="#1e2221"/><stop offset="1" stop-color="#1e2221"/></radialGradient></defs><path filter="url(#b)" fill="#495a56" d="M341.5 326.5H640v5.5H341.5z" transform="translate(-210.4 -241.029) scale(.79407)"/><path filter="url(#c)" fill="#858585" d="M341.5 321.91H640v.939H341.5z" transform="translate(-210.4 -241.029) scale(.79407)"/><path filter="url(#d)" fill="#858585" d="M341.5 324.5H640v.939H341.5z" transform="translate(-210.4 -241.029) scale(.79407)"/><path d="M313.75 319.39c10.21-1.33 24.76-4 30.63-4h373.04v2.18H344.38l-30.63 1.82z" filter="url(#e)" fill="#c6c6c6" transform="translate(-210.4 -241.029) scale(.79407)"/><path transform="matrix(.80233 0 0 .79407 -215.682 -241.029)" filter="url(#f)" fill="#dededc" d="M639.88 327.5h60.125v2H639.88z"/><path transform="matrix(.90365 0 0 .79407 -244.926 -241.029)" filter="url(#g)" fill="#dadad8" d="M315.02 333.98h338.7v.707h-338.7z"/><path d="M345.44 339.04h373.04l-1.06.8H344.38c-7.35 0-20.43-1.23-30.63-2.58l31.69 1.78z" filter="url(#h)" fill="#cdcdcb" transform="translate(-210.4 -241.029) scale(.79407)"/><path d="M359.218 9.19v3.16h-11.91v14.66h11.91v2.58c2.85-2.533 4.645-6.154 4.645-10.196v-.246c-.071-3.954-1.85-7.472-4.645-9.958z" fill="#4a5b57"/><path fill="#7f6a4b" d="M38.74 13.51h14.763v9.546H38.739z"/><path filter="url(#i)" fill="url(#j)" d="M700.57 317.48h1.944v21.688h-1.944z" transform="translate(-210.4 -241.029) scale(.79407)"/><path d="M718.56 316.16v3.63h-15.68v16.84h15.68v2.96c2.9-3.16 4.41-7.07 4.41-11.71v-.28c-.09-4.55-1.58-7.85-4.41-11.44z" transform="matrix(.79407 0 0 .70753 -210.821 -212.653)" filter="url(#k)" fill="#111514"/><path filter="url(#l)" fill="#101211" d="M341.5 327.91H640v2.672H341.5z" transform="translate(-210.4 -241.029) scale(.79407)"/><path d="M341.56 320.9l-9.28-.35v12.02l9.28-.45V320.9z" fill="url(#m)" transform="translate(-210.4 -241.029) scale(.79407)"/><path transform="matrix(-.16094 0 0 .79407 400.812 -241.029)" filter="url(#c)" fill="#ccc" d="M341.5 321.91H640v.939H341.5z"/><path transform="matrix(-.16094 0 0 .79407 400.812 -241.029)" filter="url(#d)" fill="#ccc" d="M341.5 324.5H640v.939H341.5z"/><path transform="matrix(.77327 0 0 .79407 -203.489 -241.029)" filter="url(#n)" fill="url(#o)" d="M313.25 320.55h19.092v12.021H313.25z"/><path d="M341.56 320.9l-9.28-.35v12.02l9.28-.45V320.9z" opacity=".673" filter="url(#p)" fill="url(#q)" transform="translate(-210.4 -241.029) scale(.79407)"/><path filter="url(#r)" fill="#474b4a" d="M716.83 319.13h.619v17.854h-.619z" transform="translate(-210.4 -241.029) scale(.79407)"/><path d="M38.74 12.295C46.846 11.24 58.4 9.12 63.061 9.12h296.22v20.543H63.062c-5.837 0-16.223-2.105-24.323-3.177v-14.19z" fill-opacity=".135" fill="#999"/><path d="M24.843 15.329l13.92-3.05v14.246l-13.92-3.057v-8.14z" fill="#b3a185"/><path d="M297.38 324.06l15.28-2.94v13.69l-15.28-2.93v-7.82z" filter="url(#s)" fill="#c5ad8b" transform="translate(-210.4 -241.029) scale(.79407)"/><path d="M297.38 324.06l15.28-2.94v13.69l-15.28-2.93v-7.82z" filter="url(#t)" fill="url(#u)" transform="translate(-210.4 -241.029) scale(.79407)"/><path d="M286.51 325.04l9.77-2.19v10.24l-9.77-2.19c-3.57-.8-3.33-5.11 0-5.86z" fill="url(#v)" transform="translate(-210.4 -241.029) scale(.79407)"/><path d="M291.98 323.81l4.3-.96v10.24l-4.3-1.06c-1.26-2.83-1.37-5.57 0-8.22z" fill="url(#w)" transform="translate(-210.4 -241.029) scale(.79407)"/><path d="M286.51 325.04l9.77-2.19v10.24l-9.77-2.19c-3.57-.8-3.33-5.11 0-5.86z" fill="url(#x)" transform="translate(-210.4 -241.029) scale(.79407)"/><g><path d="M154.15 374.77c0-.29.34-.51.68-.58 13.28-2.75 26.48-4.62 41.75-6.25 23.66-6.94 46.63-6.94 69.65-7.43 0 0 .87-1.47 1.85-1.55.97-.09 2.03 1.2 2.03 1.2 22.78-.28 48.62-.74 63.96 1.64 4.38.68 2.22 5.46.35 5.66-21.39 2.35-42.8 4.44-63.37 4.95l-1.73 2.4.05 20.97c0 .96-.63 1.8-1.26 1.8-1.09 0-1.98-.97-2.53-1.71-18.31-.14-44.78-.34-58.75-1.06-17.37-.9-34.62-5.03-52-8.7-.37-.08-.68-.26-.68-.55v-10.79z" fill="url(#y)" transform="translate(-122.4 -285.029) scale(.79407)"/><path d="M267.2 359.58l-.59.74c.28 3.93.39 6.75-.44 12.1.59 3.16-.14 6.13-.27 9.32-.17 4.41-.66 10.03-.73 13.98h.55l.7.84c.07-3.89-.16-10.28.02-14.72.09-3.14.82-6.34.06-9.42.04-.15 1.99-7.28.7-12.84z" fill-opacity=".395" filter="url(#z)" fill="#fff" transform="translate(-122.4 -285.029) scale(.79407)"/><path d="M176.4 370.68c7.74-1.24 30.69-2.74 28.72-2.37-2.74.53-5.31 1.95-7.35 1.98-6.3.12-18.25.39-21.37.39z" fill-opacity=".184" filter="url(#A)" fill="#fff" transform="translate(-122.4 -285.029) scale(.79407)"/><path d="M155.21 375.43c12.09-2.27 31.06-2.56 31.67-3.03.62-.49-31.52 3.77-31.5 5.49.01.98-1.66-2.52-.17-2.46z" fill-opacity=".33" filter="url(#B)" fill="#fff" transform="translate(-122.4 -285.029) scale(.79407)"/><path d="M154.75 384c6.98 1.63 18.91 3.25 22.5 3.62 3.51.37-18.05-1.33-22.28-2.26-.86-.19-.59-1.24-.22-1.36z" fill-opacity=".335" filter="url(#C)" fill="#fff" transform="translate(-122.4 -285.029) scale(.79407)"/></g></svg>